P2
# CREATOR: GIMP PNM Filter Version 1.1
10 5
255
1
1
1
1
1
1
1
2
5
5
4
25
247
252
255
10
253
250
1
4
255
255
255
251
244
0
254
255
254
0
13
7
5
9
6
0
247
255
255
0
21
11
4
1
1
4
242
254
255
6
